  0
SECTION
  2
HEADER
  9
$ACADVER
  1
AC1014
  9
$ACADMAINTVER
 70
     9
  9
$DWGCODEPAGE
  3
ANSI_1252
  9
$INSBASE
 10
0.0
 20
0.0
 30
0.0
  9
$EXTMIN
 10
-0.60925
 20
-0.60925
 30
0.0
  9
$EXTMAX
 10
0.609249999999936
 20
0.6092499999999509
 30
0.0
  9
$LIMMIN
 10
0.0
 20
0.0
  9
$LIMMAX
 10
12.0
 20
9.0
  9
$ORTHOMODE
 70
     0
  9
$REGENMODE
 70
     1
  9
$FILLMODE
 70
     1
  9
$QTEXTMODE
 70
     0
  9
$MIRRTEXT
 70
     1
  9
$DRAGMODE
 70
     2
  9
$LTSCALE
 40
1.0
  9
$OSMODE
 70
 13311
  9
$ATTMODE
 70
     1
  9
$TEXTSIZE
 40
0.1377952756
  9
$TRACEWID
 40
0.05
  9
$TEXTSTYLE
  7
STANDARD
  9
$CLAYER
  8
0
  9
$CELTYPE
  6
BYLAYER
  9
$CECOLOR
 62
   256
  9
$CELTSCALE
 40
1.0
  9
$DELOBJ
 70
     1
  9
$DISPSILH
 70
     0
  9
$DIMSCALE
 40
1.0
  9
$DIMASZ
 40
0.13
  9
$DIMEXO
 40
0.0393700787
  9
$DIMDLI
 40
0.38
  9
$DIMRND
 40
0.0
  9
$DIMDLE
 40
0.0
  9
$DIMEXE
 40
0.0393700787
  9
$DIMTP
 40
0.0
  9
$DIMTM
 40
0.0
  9
$DIMTXT
 40
0.1377952756
  9
$DIMCEN
 40
0.09
  9
$DIMTSZ
 40
0.0
  9
$DIMTOL
 70
     0
  9
$DIMLIM
 70
     0
  9
$DIMTIH
 70
     1
  9
$DIMTOH
 70
     1
  9
$DIMSE1
 70
     0
  9
$DIMSE2
 70
     0
  9
$DIMTAD
 70
     1
  9
$DIMZIN
 70
     0
  9
$DIMBLK
  1

  9
$DIMASO
 70
     1
  9
$DIMSHO
 70
     1
  9
$DIMPOST
  1

  9
$DIMAPOST
  1

  9
$DIMALT
 70
     0
  9
$DIMALTD
 70
     2
  9
$DIMALTF
 40
25.4
  9
$DIMLFAC
 40
1.0
  9
$DIMTOFL
 70
     0
  9
$DIMTVP
 40
0.0
  9
$DIMTIX
 70
     0
  9
$DIMSOXD
 70
     0
  9
$DIMSAH
 70
     0
  9
$DIMBLK1
  1

  9
$DIMBLK2
  1

  9
$DIMSTYLE
  2
STANDARD
  9
$DIMCLRD
 70
     0
  9
$DIMCLRE
 70
     0
  9
$DIMCLRT
 70
     0
  9
$DIMTFAC
 40
1.0
  9
$DIMGAP
 40
0.06
  9
$DIMJUST
 70
     0
  9
$DIMSD1
 70
     0
  9
$DIMSD2
 70
     0
  9
$DIMTOLJ
 70
     1
  9
$DIMTZIN
 70
     0
  9
$DIMALTZ
 70
     0
  9
$DIMALTTZ
 70
     0
  9
$DIMFIT
 70
     5
  9
$DIMUPT
 70
     0
  9
$DIMUNIT
 70
     2
  9
$DIMDEC
 70
     2
  9
$DIMTDEC
 70
     2
  9
$DIMALTU
 70
     2
  9
$DIMALTTD
 70
     2
  9
$DIMTXSTY
  7
STANDARD
  9
$DIMAUNIT
 70
     0
  9
$LUNITS
 70
     2
  9
$LUPREC
 70
     2
  9
$SKETCHINC
 40
0.1
  9
$FILLETRAD
 40
0.5
  9
$AUNITS
 70
     0
  9
$AUPREC
 70
     2
  9
$MENU
  1
.
  9
$ELEVATION
 40
0.0
  9
$PELEVATION
 40
0.0
  9
$THICKNESS
 40
0.0
  9
$LIMCHECK
 70
     0
  9
$CHAMFERA
 40
0.5
  9
$CHAMFERB
 40
0.5
  9
$CHAMFERC
 40
0.0
  9
$CHAMFERD
 40
0.0
  9
$SKPOLY
 70
     0
  9
$TDCREATE
 40
2458576.552157893
  9
$TDUPDATE
 40
2458578.623397859
  9
$TDINDWG
 40
0.0003740625
  9
$TDUSRTIMER
 40
2458578.914829121
  9
$USRTIMER
 70
     1
  9
$ANGBASE
 50
0.0
  9
$ANGDIR
 70
     0
  9
$PDMODE
 70
     0
  9
$PDSIZE
 40
-1.0
  9
$PLINEWID
 40
0.0
  9
$COORDS
 70
     1
  9
$SPLFRAME
 70
     0
  9
$SPLINETYPE
 70
     6
  9
$SPLINESEGS
 70
     8
  9
$ATTDIA
 70
     0
  9
$ATTREQ
 70
     1
  9
$HANDLING
 70
     1
  9
$HANDSEED
  5
1BC
  9
$SURFTAB1
 70
     6
  9
$SURFTAB2
 70
     6
  9
$SURFTYPE
 70
     6
  9
$SURFU
 70
     6
  9
$SURFV
 70
     6
  9
$UCSNAME
  2

  9
$UCSORG
 10
0.0
 20
0.0
 30
0.0
  9
$UCSXDIR
 10
1.0
 20
0.0
 30
0.0
  9
$UCSYDIR
 10
0.0
 20
1.0
 30
0.0
  9
$PUCSNAME
  2

  9
$PUCSORG
 10
0.0
 20
0.0
 30
0.0
  9
$PUCSXDIR
 10
1.0
 20
0.0
 30
0.0
  9
$PUCSYDIR
 10
0.0
 20
1.0
 30
0.0
  9
$USERI1
 70
     0
  9
$USERI2
 70
     0
  9
$USERI3
 70
     0
  9
$USERI4
 70
     0
  9
$USERI5
 70
     0
  9
$USERR1
 40
0.0
  9
$USERR2
 40
0.0
  9
$USERR3
 40
0.0
  9
$USERR4
 40
0.0
  9
$USERR5
 40
0.0
  9
$WORLDVIEW
 70
     1
  9
$SHADEDGE
 70
     3
  9
$SHADEDIF
 70
    70
  9
$TILEMODE
 70
     1
  9
$MAXACTVP
 70
    64
  9
$PINSBASE
 10
0.0
 20
0.0
 30
0.0
  9
$PLIMCHECK
 70
     0
  9
$PEXTMIN
 10
1.000000000000000E+20
 20
1.000000000000000E+20
 30
1.000000000000000E+20
  9
$PEXTMAX
 10
-1.000000000000000E+20
 20
-1.000000000000000E+20
 30
-1.000000000000000E+20
  9
$PLIMMIN
 10
0.0
 20
0.0
  9
$PLIMMAX
 10
0.0
 20
0.0
  9
$UNITMODE
 70
     0
  9
$VISRETAIN
 70
     1
  9
$PLINEGEN
 70
     0
  9
$PSLTSCALE
 70
     1
  9
$TREEDEPTH
 70
  3020
  9
$PICKSTYLE
 70
     0
  9
$CMLSTYLE
  2
STANDARD
  9
$CMLJUST
 70
     0
  9
$CMLSCALE
 40
1.0
  9
$PROXYGRAPHICS
 70
     1
  9
$MEASUREMENT
 70
     0
  0
ENDSEC
  0
SECTION
  2
CLASSES
  0
CLASS
  1
ACDBDICTIONARYWDFLT
  2
AcDbDictionaryWithDefault
  3
ObjectDBX Classes
 90
        0
280
     0
281
     0
  0
CLASS
  1
MATERIAL
  2
AcDbMaterial
  3
ObjectDBX Classes
 90
     1153
280
     0
281
     0
  0
CLASS
  1
SCALE
  2
AcDbScale
  3
ObjectDBX Classes
 90
     1153
280
     0
281
     0
  0
CLASS
  1
VISUALSTYLE
  2
AcDbVisualStyle
  3
ObjectDBX Classes
 90
     4095
280
     0
281
     0
  0
CLASS
  1
TABLESTYLE
  2
AcDbTableStyle
  3
ObjectDBX Classes
 90
     4095
280
     0
281
     0
  0
CLASS
  1
MLEADERSTYLE
  2
AcDbMLeaderStyle
  3
ACDB_MLEADERSTYLE_CLASS
 90
     4095
280
     0
281
     0
  0
CLASS
  1
SUN
  2
AcDbSun
  3
SCENEOE
 90
     1153
280
     0
281
     0
  0
CLASS
  1
RASTERVARIABLES
  2
AcDbRasterVariables
  3
ISM
 90
        0
280
     0
281
     0
  0
CLASS
  1
XRECORD
  2
AcDbXrecord
  3
ObjectDBX Classes
 90
        0
280
     0
281
     0
  0
CLASS
  1
LWPOLYLINE
  2
AcDbPolyline
  3
ObjectDBX Classes
 90
        0
280
     0
281
     1
  0
CLASS
  1
HATCH
  2
AcDbHatch
  3
ObjectDBX Classes
 90
        0
280
     0
281
     1
  0
ENDSEC
  0
SECTION
  2
TABLES
  0
TABLE
  2
VPORT
  5
151
330
0
100
AcDbSymbolTable
 70
     1
  0
VPORT
  5
168
330
151
100
AcDbSymbolTableRecord
100
AcDbViewportTableRecord
  2
*ACTIVE
 70
     0
 10
0.0
 20
0.0
 11
1.0
 21
1.0
 12
-0.0000637242421213
 22
0.0000000000000014
 13
0.0
 23
0.0
 14
0.5
 24
0.5
 15
0.5
 25
0.5
 16
0.0
 26
0.0
 36
1.0
 17
0.0
 27
0.0
 37
0.0
 40
1.242869999999897
 41
2.66571018651363
 42
50.0
 43
0.0
 44
0.0
 50
0.0
 51
0.0
 71
    16
 72
   100
 73
     1
 74
     3
 75
     0
 76
     0
 77
     0
 78
     0
  0
ENDTAB
  0
TABLE
  2
LTYPE
  5
14E
330
0
100
AcDbSymbolTable
 70
     6
  0
LTYPE
  5
15C
330
14E
100
AcDbSymbolTableRecord
100
AcDbLinetypeTableRecord
  2
BYBLOCK
 70
     0
  3

 72
    65
 73
     0
 40
0.0
  0
LTYPE
  5
15D
330
14E
100
AcDbSymbolTableRecord
100
AcDbLinetypeTableRecord
  2
BYLAYER
 70
     0
  3

 72
    65
 73
     0
 40
0.0
  0
LTYPE
  5
15E
330
14E
100
AcDbSymbolTableRecord
100
AcDbLinetypeTableRecord
  2
CONTINUOUS
 70
     0
  3
Solid line
 72
    65
 73
     0
 40
0.0
  0
LTYPE
  5
16A
330
14E
100
AcDbSymbolTableRecord
100
AcDbLinetypeTableRecord
  2
HIDDEN
 70
     0
  3
Hidden __ __ __ __ __ __ __ __ __ __ __ __ __ __
 72
    65
 73
     2
 40
0.075
 49
0.05
 74
     0
 49
-0.025
 74
     0
  0
LTYPE
  5
16B
330
14E
100
AcDbSymbolTableRecord
100
AcDbLinetypeTableRecord
  2
PHANTOM
 70
     0
  3
Phantom ______  __  __  ______  __  __  ______
 72
    65
 73
     6
 40
0.5
 49
0.25
 74
     0
 49
-0.05
 74
     0
 49
0.05
 74
     0
 49
-0.05
 74
     0
 49
0.05
 74
     0
 49
-0.05
 74
     0
  0
LTYPE
  5
16C
330
14E
100
AcDbSymbolTableRecord
100
AcDbLinetypeTableRecord
  2
CENTER
 70
     0
  3
Center ____ _ ____ _ ____ _ ____ _ ____ _ ____
 72
    65
 73
     4
 40
0.4
 49
0.25
 74
     0
 49
-0.05
 74
     0
 49
0.05
 74
     0
 49
-0.05
 74
     0
  0
LTYPE
  5
16D
330
14E
100
AcDbSymbolTableRecord
100
AcDbLinetypeTableRecord
  2
CENTERX2
 70
     0
  3
Center (2x) ________  __  ________  __  _____
 72
    65
 73
     4
 40
0.8
 49
0.5
 74
     0
 49
-0.1
 74
     0
 49
0.1
 74
     0
 49
-0.1
 74
     0
  0
LTYPE
  5
16E
330
14E
100
AcDbSymbolTableRecord
100
AcDbLinetypeTableRecord
  2
DOT2
 70
     0
  3
Dot (.5x) ........................................
 72
    65
 73
     2
 40
0.025
 49
0.0
 74
     0
 49
-0.025
 74
     0
  0
ENDTAB
  0
TABLE
  2
LAYER
  5
14B
330
0
100
AcDbSymbolTable
 70
     1
  0
LAYER
  5
159
330
14B
100
AcDbSymbolTableRecord
100
AcDbLayerTableRecord
  2
0
 70
     0
 62
     7
  6
CONTINUOUS
  0
ENDTAB
  0
TABLE
  2
STYLE
  5
14C
330
0
100
AcDbSymbolTable
 70
     1
  0
STYLE
  5
15A
330
14C
100
AcDbSymbolTableRecord
100
AcDbTextStyleTableRecord
  2
STANDARD
 70
     0
 40
0.0
 41
1.0
 50
0.0
 71
     0
 42
0.1377952756
  3
txt
  4

  0
ENDTAB
  0
TABLE
  2
VIEW
  5
14F
330
0
100
AcDbSymbolTable
 70
     0
  0
ENDTAB
  0
TABLE
  2
UCS
  5
150
330
0
100
AcDbSymbolTable
 70
     0
  0
ENDTAB
  0
TABLE
  2
APPID
  5
152
330
0
100
AcDbSymbolTable
 70
     1
  0
APPID
  5
15B
330
152
100
AcDbSymbolTableRecord
100
AcDbRegAppTableRecord
  2
ACAD
 70
     0
  0
ENDTAB
  0
TABLE
  2
DIMSTYLE
  5
153
330
0
100
AcDbSymbolTable
 70
     1
  0
DIMSTYLE
105
176
330
153
100
AcDbSymbolTableRecord
100
AcDbDimStyleTableRecord
  2
STANDARD
 70
     0
  3

  4

  5

  6

  7

 40
1.0
 41
0.18
 42
0.0625
 43
0.38
 44
0.18
 45
0.0
 46
0.0
 47
0.0
 48
0.0
140
0.18
141
0.09
142
0.0
143
25.4
144
1.0
145
0.0
146
1.0
147
0.09
 71
     0
 72
     0
 73
     1
 74
     1
 75
     0
 76
     0
 77
     0
 78
     0
170
     0
171
     2
172
     0
173
     0
174
     0
175
     0
176
     0
177
     0
178
     0
270
     2
271
     4
272
     4
273
     2
274
     2
340
15A
275
     0
280
     0
281
     0
282
     0
283
     1
284
     0
285
     0
286
     0
287
     3
288
     0
  0
ENDTAB
  0
TABLE
  2
BLOCK_RECORD
  5
14A
330
0
100
AcDbSymbolTable
 70
     0
  0
BLOCK_RECORD
  5
165
330
14A
100
AcDbSymbolTableRecord
100
AcDbBlockTableRecord
  2
*MODEL_SPACE
  0
BLOCK_RECORD
  5
163
330
14A
100
AcDbSymbolTableRecord
100
AcDbBlockTableRecord
  2
*PAPER_SPACE
  0
ENDTAB
  0
ENDSEC
  0
SECTION
  2
BLOCKS
  0
BLOCK
  5
177
330
165
100
AcDbEntity
  8
0
100
AcDbBlockBegin
  2
*MODEL_SPACE
 70
     0
 10
0.0
 20
0.0
 30
0.0
  3
*MODEL_SPACE
  1

  0
ENDBLK
  5
21
330
165
100
AcDbEntity
  8
0
100
AcDbBlockEnd
  0
BLOCK
  5
178
330
163
100
AcDbEntity
 67
     1
  8
0
100
AcDbBlockBegin
  2
*PAPER_SPACE
 70
     0
 10
0.0
 20
0.0
 30
0.0
  3
*PAPER_SPACE
  1

  0
ENDBLK
  5
1D
330
163
100
AcDbEntity
 67
     1
  8
0
100
AcDbBlockEnd
  0
ENDSEC
  0
SECTION
  2
ENTITIES
  0
ARC
  5
A4
330
165
100
AcDbEntity
  8
0
  6
CONTINUOUS
100
AcDbCircle
 10
0.0
 20
0.0
 30
0.0
 40
0.6092499999999508
100
AcDbArc
 50
84.14017327520001
 51
95.85982672479997
  0
ARC
  5
A5
330
165
100
AcDbEntity
  8
0
  6
CONTINUOUS
100
AcDbCircle
 10
0.0597511396
 20
0.5821918617
 30
0.0
 40
0.0240000000000003
100
AcDbArc
 50
23.5632708015
 51
84.14017327520001
  0
ARC
  5
A6
330
165
100
AcDbEntity
  8
0
  6
CONTINUOUS
100
AcDbCircle
 10
0.0927494302
 20
0.5965832764
 30
0.0
 40
0.0120000000000002
100
AcDbArc
 50
203.5632708015
 51
261.1631002978999
  0
ARC
  5
A7
330
165
100
AcDbEntity
  8
0
  6
CONTINUOUS
100
AcDbCircle
 10
0.0
 20
0.0
 30
0.0
 40
0.5917499999998934
100
AcDbArc
 50
76.3368997021
 51
81.1631002979
  0
ARC
  5
A8
330
165
100
AcDbEntity
  8
0
  6
CONTINUOUS
100
AcDbCircle
 10
0.1426132357
 20
0.5866647488
 30
0.0
 40
0.0120000000000007
100
AcDbArc
 50
256.3368997021
 51
313.9367291985001
  0
ARC
  5
A9
330
165
100
AcDbEntity
  8
0
  6
CONTINUOUS
100
AcDbCircle
 10
0.167592325
 20
0.5607409162
 30
0.0
 40
0.0239999999999997
100
AcDbArc
 50
73.3598267248
 51
133.9367291985
  0
ARC
  5
AA
330
165
100
AcDbEntity
  8
0
  6
CONTINUOUS
100
AcDbCircle
 10
0.0
 20
0.0
 30
0.0
 40
0.6092499999999645
100
AcDbArc
 50
61.64017327520001
 51
73.3598267248
  0
ARC
  5
AB
330
165
100
AcDbEntity
  8
0
  6
CONTINUOUS
100
AcDbCircle
 10
0.2779980348
 20
0.5150093738
 30
0.0
 40
0.024000000000001
100
AcDbArc
 50
1.0632708015
 51
61.64017327520001
  0
ARC
  5
AC
330
165
100
AcDbEntity
  8
0
  6
CONTINUOUS
100
AcDbCircle
 10
0.3139918361
 20
0.5156774082
 30
0.0
 40
0.0120000000000002
100
AcDbArc
 50
181.0632708015
 51
238.6631002979
  0
ARC
  5
AD
330
165
100
AcDbEntity
  8
0
  6
CONTINUOUS
100
AcDbCircle
 10
0.0
 20
0.0
 30
0.0
 40
0.5917499999999911
100
AcDbArc
 50
53.83689970209999
 51
58.66310029789999
  0
ARC
  5
AE
330
165
100
AcDbEntity
  8
0
  6
CONTINUOUS
100
AcDbCircle
 10
0.3562643293
 20
0.4874318313
 30
0.0
 40
0.0119999999999997
100
AcDbArc
 50
233.8368997021
 51
291.4367291985
  0
ARC
  5
AF
330
165
100
AcDbEntity
  8
0
  6
CONTINUOUS
100
AcDbCircle
 10
0.3694213774
 20
0.4539222493
 30
0.0
 40
0.024
100
AcDbArc
 50
50.8598267248
 51
111.4367291985
  0
ARC
  5
B0
330
165
100
AcDbEntity
  8
0
  6
CONTINUOUS
100
AcDbCircle
 10
0.0
 20
0.0
 30
0.0
 40
0.6092499999999511
100
AcDbArc
 50
39.1401732752
 51
50.8598267248
  0
ARC
  5
B1
330
165
100
AcDbEntity
  8
0
  6
CONTINUOUS
100
AcDbCircle
 10
0.4539222493
 20
0.3694213774
 30
0.0
 40
0.0240000000000008
100
AcDbArc
 50
338.5632708014999
 51
39.1401732752
  0
ARC
  5
B2
330
165
100
AcDbEntity
  8
0
  6
CONTINUOUS
100
AcDbCircle
 10
0.4874318313
 20
0.3562643293
 30
0.0
 40
0.0119999999999998
100
AcDbArc
 50
158.5632708015
 51
216.1631002979
  0
ARC
  5
B3
330
165
100
AcDbEntity
  8
0
  6
CONTINUOUS
100
AcDbCircle
 10
0.0
 20
0.0
 30
0.0
 40
0.5917499999999802
100
AcDbArc
 50
31.3368997021
 51
36.1631002979
  0
ARC
  5
B4
330
165
100
AcDbEntity
  8
0
  6
CONTINUOUS
100
AcDbCircle
 10
0.5156774082
 20
0.3139918361
 30
0.0
 40
0.0119999999999994
100
AcDbArc
 50
211.3368997021
 51
268.9367291985001
  0
ARC
  5
B5
330
165
100
AcDbEntity
  8
0
  6
CONTINUOUS
100
AcDbCircle
 10
0.5150093738
 20
0.2779980348
 30
0.0
 40
0.0240000000000001
100
AcDbArc
 50
28.3598267248
 51
88.9367291985
  0
ARC
  5
B6
330
165
100
AcDbEntity
  8
0
  6
CONTINUOUS
100
AcDbCircle
 10
0.0
 20
0.0
 30
0.0
 40
0.6092499999999453
100
AcDbArc
 50
16.6401732752
 51
28.3598267248
  0
ARC
  5
B7
330
165
100
AcDbEntity
  8
0
  6
CONTINUOUS
100
AcDbCircle
 10
0.5607409162
 20
0.167592325
 30
0.0
 40
0.0240000000000012
100
AcDbArc
 50
316.0632708014999
 51
16.6401732752
  0
ARC
  5
B8
330
165
100
AcDbEntity
  8
0
  6
CONTINUOUS
100
AcDbCircle
 10
0.5866647488
 20
0.1426132357
 30
0.0
 40
0.0119999999999996
100
AcDbArc
 50
136.0632708015
 51
193.6631002979
  0
ARC
  5
B9
330
165
100
AcDbEntity
  8
0
  6
CONTINUOUS
100
AcDbCircle
 10
0.0
 20
0.0
 30
0.0
 40
0.5917499999999765
100
AcDbArc
 50
8.8368997021
 51
13.6631002979
  0
ARC
  5
BA
330
165
100
AcDbEntity
  8
0
  6
CONTINUOUS
100
AcDbCircle
 10
0.5965832764
 20
0.0927494302
 30
0.0
 40
0.0119999999999992
100
AcDbArc
 50
188.8368997021
 51
246.4367291985
  0
ARC
  5
BB
330
165
100
AcDbEntity
  8
0
  6
CONTINUOUS
100
AcDbCircle
 10
0.5821918617
 20
0.0597511396
 30
0.0
 40
0.0239999999999998
100
AcDbArc
 50
5.8598267248
 51
66.4367291985
  0
ARC
  5
BC
330
165
100
AcDbEntity
  8
0
  6
CONTINUOUS
100
AcDbCircle
 10
0.0
 20
0.0
 30
0.0
 40
0.6092499999999361
100
AcDbArc
 50
354.1401732752
 51
5.8598267248
  0
ARC
  5
BD
330
165
100
AcDbEntity
  8
0
  6
CONTINUOUS
100
AcDbCircle
 10
0.5821918617
 20
-0.0597511396
 30
0.0
 40
0.0240000000000004
100
AcDbArc
 50
293.5632708014999
 51
354.1401732752
  0
ARC
  5
BE
330
165
100
AcDbEntity
  8
0
  6
CONTINUOUS
100
AcDbCircle
 10
0.5965832764
 20
-0.0927494302
 30
0.0
 40
0.0119999999999997
100
AcDbArc
 50
113.5632708015
 51
171.1631002979
  0
ARC
  5
BF
330
165
100
AcDbEntity
  8
0
  6
CONTINUOUS
100
AcDbCircle
 10
0.0
 20
0.0
 30
0.0
 40
0.5917499999999226
100
AcDbArc
 50
346.3368997021
 51
351.1631002978999
  0
ARC
  5
C0
330
165
100
AcDbEntity
  8
0
  6
CONTINUOUS
100
AcDbCircle
 10
0.5866647488
 20
-0.1426132357
 30
0.0
 40
0.0120000000000004
100
AcDbArc
 50
166.3368997021
 51
223.9367291985
  0
ARC
  5
C1
330
165
100
AcDbEntity
  8
0
  6
CONTINUOUS
100
AcDbCircle
 10
0.5607409162
 20
-0.167592325
 30
0.0
 40
0.0240000000000001
100
AcDbArc
 50
343.3598267248
 51
43.93672919849999
  0
ARC
  5
C2
330
165
100
AcDbEntity
  8
0
  6
CONTINUOUS
100
AcDbCircle
 10
0.0
 20
0.0
 30
0.0
 40
0.6092499999999652
100
AcDbArc
 50
331.6401732752
 51
343.3598267248
  0
ARC
  5
C3
330
165
100
AcDbEntity
  8
0
  6
CONTINUOUS
100
AcDbCircle
 10
0.5150093738
 20
-0.2779980348
 30
0.0
 40
0.0240000000000008
100
AcDbArc
 50
271.0632708014999
 51
331.6401732752
  0
ARC
  5
C4
330
165
100
AcDbEntity
  8
0
  6
CONTINUOUS
100
AcDbCircle
 10
0.5156774082
 20
-0.3139918361
 30
0.0
 40
0.0119999999999993
100
AcDbArc
 50
91.0632708015
 51
148.6631002979
  0
ARC
  5
C5
330
165
100
AcDbEntity
  8
0
  6
CONTINUOUS
100
AcDbCircle
 10
0.0
 20
0.0
 30
0.0
 40
0.5917500000000346
100
AcDbArc
 50
323.8368997021
 51
328.6631002979
  0
ARC
  5
C6
330
165
100
AcDbEntity
  8
0
  6
CONTINUOUS
100
AcDbCircle
 10
0.4874318313
 20
-0.3562643293
 30
0.0
 40
0.0120000000000002
100
AcDbArc
 50
143.8368997021
 51
201.4367291985
  0
ARC
  5
C7
330
165
100
AcDbEntity
  8
0
  6
CONTINUOUS
100
AcDbCircle
 10
0.4539222493
 20
-0.3694213774
 30
0.0
 40
0.024
100
AcDbArc
 50
320.8598267248
 51
21.4367291985
  0
ARC
  5
C8
330
165
100
AcDbEntity
  8
0
  6
CONTINUOUS
100
AcDbCircle
 10
0.0
 20
0.0
 30
0.0
 40
0.6092499999999459
100
AcDbArc
 50
309.1401732752
 51
320.8598267248
  0
ARC
  5
C9
330
165
100
AcDbEntity
  8
0
  6
CONTINUOUS
100
AcDbCircle
 10
0.3694213774
 20
-0.4539222493
 30
0.0
 40
0.0240000000000003
100
AcDbArc
 50
248.5632708015
 51
309.1401732752
  0
ARC
  5
CA
330
165
100
AcDbEntity
  8
0
  6
CONTINUOUS
100
AcDbCircle
 10
0.3562643293
 20
-0.4874318313
 30
0.0
 40
0.0119999999999996
100
AcDbArc
 50
68.5632708015
 51
126.1631002979
  0
ARC
  5
CB
330
165
100
AcDbEntity
  8
0
  6
CONTINUOUS
100
AcDbCircle
 10
0.0
 20
0.0
 30
0.0
 40
0.5917500000000124
100
AcDbArc
 50
301.3368997021
 51
306.1631002979
  0
ARC
  5
CC
330
165
100
AcDbEntity
  8
0
  6
CONTINUOUS
100
AcDbCircle
 10
0.3139918361
 20
-0.5156774082
 30
0.0
 40
0.012
100
AcDbArc
 50
121.3368997021
 51
178.9367291985
  0
ARC
  5
CD
330
165
100
AcDbEntity
  8
0
  6
CONTINUOUS
100
AcDbCircle
 10
0.2779980348
 20
-0.5150093738
 30
0.0
 40
0.0240000000000002
100
AcDbArc
 50
298.3598267248
 51
358.9367291985001
  0
ARC
  5
CE
330
165
100
AcDbEntity
  8
0
  6
CONTINUOUS
100
AcDbCircle
 10
0.0
 20
0.0
 30
0.0
 40
0.6092499999999446
100
AcDbArc
 50
286.6401732752
 51
298.3598267248
  0
ARC
  5
CF
330
165
100
AcDbEntity
  8
0
  6
CONTINUOUS
100
AcDbCircle
 10
0.167592325
 20
-0.5607409162
 30
0.0
 40
0.024000000000001
100
AcDbArc
 50
226.0632708015
 51
286.6401732752
  0
ARC
  5
D0
330
165
100
AcDbEntity
  8
0
  6
CONTINUOUS
100
AcDbCircle
 10
0.1426132357
 20
-0.5866647488
 30
0.0
 40
0.0119999999999991
100
AcDbArc
 50
46.0632708015
 51
103.6631002979
  0
ARC
  5
D1
330
165
100
AcDbEntity
  8
0
  6
CONTINUOUS
100
AcDbCircle
 10
0.0
 20
0.0
 30
0.0
 40
0.591750000000022
100
AcDbArc
 50
278.8368997021
 51
283.6631002979
  0
ARC
  5
D2
330
165
100
AcDbEntity
  8
0
  6
CONTINUOUS
100
AcDbCircle
 10
0.0927494302
 20
-0.5965832764
 30
0.0
 40
0.0119999999999997
100
AcDbArc
 50
98.8368997021
 51
156.4367291985
  0
ARC
  5
D3
330
165
100
AcDbEntity
  8
0
  6
CONTINUOUS
100
AcDbCircle
 10
0.0597511396
 20
-0.5821918617
 30
0.0
 40
0.0239999999999995
100
AcDbArc
 50
275.8598267248
 51
336.4367291985001
  0
ARC
  5
D4
330
165
100
AcDbEntity
  8
0
  6
CONTINUOUS
100
AcDbCircle
 10
0.0
 20
0.0
 30
0.0
 40
0.6092499999999479
100
AcDbArc
 50
264.1401732752
 51
275.8598267248
  0
ARC
  5
D5
330
165
100
AcDbEntity
  8
0
  6
CONTINUOUS
100
AcDbCircle
 10
-0.0597511396
 20
-0.5821918617
 30
0.0
 40
0.0240000000000006
100
AcDbArc
 50
203.5632708015
 51
264.1401732752
  0
ARC
  5
D6
330
165
100
AcDbEntity
  8
0
  6
CONTINUOUS
100
AcDbCircle
 10
-0.0927494302
 20
-0.5965832764
 30
0.0
 40
0.0119999999999993
100
AcDbArc
 50
23.5632708015
 51
81.1631002979
  0
ARC
  5
D7
330
165
100
AcDbEntity
  8
0
  6
CONTINUOUS
100
AcDbCircle
 10
0.0
 20
0.0
 30
0.0
 40
0.5917499999999298
100
AcDbArc
 50
256.3368997021
 51
261.1631002978999
  0
ARC
  5
D8
330
165
100
AcDbEntity
  8
0
  6
CONTINUOUS
100
AcDbCircle
 10
-0.1426132357
 20
-0.5866647488
 30
0.0
 40
0.0119999999999995
100
AcDbArc
 50
76.3368997021
 51
133.9367291985
  0
ARC
  5
D9
330
165
100
AcDbEntity
  8
0
  6
CONTINUOUS
100
AcDbCircle
 10
-0.167592325
 20
-0.5607409162
 30
0.0
 40
0.0239999999999998
100
AcDbArc
 50
253.3598267248
 51
313.9367291985001
  0
ARC
  5
DA
330
165
100
AcDbEntity
  8
0
  6
CONTINUOUS
100
AcDbCircle
 10
0.0
 20
0.0
 30
0.0
 40
0.6092499999999519
100
AcDbArc
 50
241.6401732752
 51
253.3598267248
  0
ARC
  5
DB
330
165
100
AcDbEntity
  8
0
  6
CONTINUOUS
100
AcDbCircle
 10
-0.2779980348
 20
-0.5150093738
 30
0.0
 40
0.0240000000000001
100
AcDbArc
 50
181.0632708015
 51
241.6401732752
  0
ARC
  5
DC
330
165
100
AcDbEntity
  8
0
  6
CONTINUOUS
100
AcDbCircle
 10
-0.3139918361
 20
-0.5156774082
 30
0.0
 40
0.0120000000000001
100
AcDbArc
 50
1.0632708015
 51
58.66310029789999
  0
ARC
  5
DD
330
165
100
AcDbEntity
  8
0
  6
CONTINUOUS
100
AcDbCircle
 10
0.0
 20
0.0
 30
0.0
 40
0.5917499999999476
100
AcDbArc
 50
233.8368997021
 51
238.6631002979
  0
ARC
  5
DE
330
165
100
AcDbEntity
  8
0
  6
CONTINUOUS
100
AcDbCircle
 10
-0.3562643293
 20
-0.4874318313
 30
0.0
 40
0.0119999999999997
100
AcDbArc
 50
53.83689970209999
 51
111.4367291985
  0
ARC
  5
DF
330
165
100
AcDbEntity
  8
0
  6
CONTINUOUS
100
AcDbCircle
 10
-0.3694213774
 20
-0.4539222493
 30
0.0
 40
0.0240000000000001
100
AcDbArc
 50
230.8598267248
 51
291.4367291985
  0
ARC
  5
E0
330
165
100
AcDbEntity
  8
0
  6
CONTINUOUS
100
AcDbCircle
 10
0.0
 20
0.0
 30
0.0
 40
0.6092499999999392
100
AcDbArc
 50
219.1401732752
 51
230.8598267248
  0
ARC
  5
E1
330
165
100
AcDbEntity
  8
0
  6
CONTINUOUS
100
AcDbCircle
 10
-0.4539222493
 20
-0.3694213774
 30
0.0
 40
0.0240000000000004
100
AcDbArc
 50
158.5632708015
 51
219.1401732752
  0
ARC
  5
E2
330
165
100
AcDbEntity
  8
0
  6
CONTINUOUS
100
AcDbCircle
 10
-0.4874318313
 20
-0.3562643293
 30
0.0
 40
0.0119999999999996
100
AcDbArc
 50
338.5632708014999
 51
36.1631002979
  0
ARC
  5
E3
330
165
100
AcDbEntity
  8
0
  6
CONTINUOUS
100
AcDbCircle
 10
0.0
 20
0.0
 30
0.0
 40
0.5917499999999942
100
AcDbArc
 50
211.3368997021
 51
216.1631002979
  0
ARC
  5
E4
330
165
100
AcDbEntity
  8
0
  6
CONTINUOUS
100
AcDbCircle
 10
-0.5156774082
 20
-0.3139918361
 30
0.0
 40
0.0119999999999994
100
AcDbArc
 50
31.3368997021
 51
88.9367291985
  0
ARC
  5
E5
330
165
100
AcDbEntity
  8
0
  6
CONTINUOUS
100
AcDbCircle
 10
-0.5150093738
 20
-0.2779980348
 30
0.0
 40
0.0240000000000002
100
AcDbArc
 50
208.3598267248
 51
268.9367291985001
  0
ARC
  5
E6
330
165
100
AcDbEntity
  8
0
  6
CONTINUOUS
100
AcDbCircle
 10
0.0
 20
0.0
 30
0.0
 40
0.6092499999999341
100
AcDbArc
 50
196.6401732752
 51
208.3598267248
  0
ARC
  5
E7
330
165
100
AcDbEntity
  8
0
  6
CONTINUOUS
100
AcDbCircle
 10
-0.5607409162
 20
-0.167592325
 30
0.0
 40
0.0240000000000003
100
AcDbArc
 50
136.0632708015
 51
196.6401732752
  0
ARC
  5
E8
330
165
100
AcDbEntity
  8
0
  6
CONTINUOUS
100
AcDbCircle
 10
-0.5866647488
 20
-0.1426132357
 30
0.0
 40
0.012
100
AcDbArc
 50
316.0632708014999
 51
13.6631002979
  0
ARC
  5
E9
330
165
100
AcDbEntity
  8
0
  6
CONTINUOUS
100
AcDbCircle
 10
0.0
 20
0.0
 30
0.0
 40
0.5917500000000403
100
AcDbArc
 50
188.8368997021
 51
193.6631002979
  0
ARC
  5
EA
330
165
100
AcDbEntity
  8
0
  6
CONTINUOUS
100
AcDbCircle
 10
-0.5965832764
 20
-0.0927494302
 30
0.0
 40
0.012
100
AcDbArc
 50
8.8368997021
 51
66.4367291985
  0
ARC
  5
EB
330
165
100
AcDbEntity
  8
0
  6
CONTINUOUS
100
AcDbCircle
 10
-0.5821918617
 20
-0.0597511396
 30
0.0
 40
0.0239999999999998
100
AcDbArc
 50
185.8598267248
 51
246.4367291985
  0
ARC
  5
EC
330
165
100
AcDbEntity
  8
0
  6
CONTINUOUS
100
AcDbCircle
 10
0.0
 20
0.0
 30
0.0
 40
0.6092499999999362
100
AcDbArc
 50
174.1401732752
 51
185.8598267248
  0
ARC
  5
ED
330
165
100
AcDbEntity
  8
0
  6
CONTINUOUS
100
AcDbCircle
 10
-0.5821918617
 20
0.0597511396
 30
0.0
 40
0.0240000000000003
100
AcDbArc
 50
113.5632708015
 51
174.1401732752
  0
ARC
  5
EE
330
165
100
AcDbEntity
  8
0
  6
CONTINUOUS
100
AcDbCircle
 10
-0.5965832764
 20
0.0927494302
 30
0.0
 40
0.0119999999999999
100
AcDbArc
 50
293.5632708014999
 51
351.1631002978999
  0
ARC
  5
EF
330
165
100
AcDbEntity
  8
0
  6
CONTINUOUS
100
AcDbCircle
 10
0.0
 20
0.0
 30
0.0
 40
0.5917499999999642
100
AcDbArc
 50
166.3368997021
 51
171.1631002979
  0
ARC
  5
F0
330
165
100
AcDbEntity
  8
0
  6
CONTINUOUS
100
AcDbCircle
 10
-0.5866647488
 20
0.1426132357
 30
0.0
 40
0.0120000000000002
100
AcDbArc
 50
346.3368997021
 51
43.93672919849999
  0
ARC
  5
F1
330
165
100
AcDbEntity
  8
0
  6
CONTINUOUS
100
AcDbCircle
 10
-0.5607409162
 20
0.167592325
 30
0.0
 40
0.0239999999999997
100
AcDbArc
 50
163.3598267248
 51
223.9367291985
  0
ARC
  5
F2
330
165
100
AcDbEntity
  8
0
  6
CONTINUOUS
100
AcDbCircle
 10
0.0
 20
0.0
 30
0.0
 40
0.6092499999999472
100
AcDbArc
 50
151.6401732752
 51
163.3598267248
  0
ARC
  5
F3
330
165
100
AcDbEntity
  8
0
  6
CONTINUOUS
100
AcDbCircle
 10
-0.5150093738
 20
0.2779980348
 30
0.0
 40
0.0240000000000007
100
AcDbArc
 50
91.0632708015
 51
151.6401732752
  0
ARC
  5
F4
330
165
100
AcDbEntity
  8
0
  6
CONTINUOUS
100
AcDbCircle
 10
-0.5156774082
 20
0.3139918361
 30
0.0
 40
0.0119999999999999
100
AcDbArc
 50
271.0632708014999
 51
328.6631002979
  0
ARC
  5
F5
330
165
100
AcDbEntity
  8
0
  6
CONTINUOUS
100
AcDbCircle
 10
0.0
 20
0.0
 30
0.0
 40
0.5917499999999863
100
AcDbArc
 50
143.8368997021
 51
148.6631002979
  0
ARC
  5
F6
330
165
100
AcDbEntity
  8
0
  6
CONTINUOUS
100
AcDbCircle
 10
-0.4874318313
 20
0.3562643293
 30
0.0
 40
0.0120000000000002
100
AcDbArc
 50
323.8368997021
 51
21.4367291985
  0
ARC
  5
F7
330
165
100
AcDbEntity
  8
0
  6
CONTINUOUS
100
AcDbCircle
 10
-0.4539222493
 20
0.3694213774
 30
0.0
 40
0.0240000000000001
100
AcDbArc
 50
140.8598267248
 51
201.4367291985
  0
ARC
  5
F8
330
165
100
AcDbEntity
  8
0
  6
CONTINUOUS
100
AcDbCircle
 10
0.0
 20
0.0
 30
0.0
 40
0.6092499999999565
100
AcDbArc
 50
129.1401732752
 51
140.8598267248
  0
ARC
  5
F9
330
165
100
AcDbEntity
  8
0
  6
CONTINUOUS
100
AcDbCircle
 10
-0.3694213774
 20
0.4539222493
 30
0.0
 40
0.0240000000000005
100
AcDbArc
 50
68.5632708015
 51
129.1401732752
  0
ARC
  5
FA
330
165
100
AcDbEntity
  8
0
  6
CONTINUOUS
100
AcDbCircle
 10
-0.3562643293
 20
0.4874318313
 30
0.0
 40
0.0119999999999997
100
AcDbArc
 50
248.5632708015
 51
306.1631002979
  0
ARC
  5
FB
330
165
100
AcDbEntity
  8
0
  6
CONTINUOUS
100
AcDbCircle
 10
0.0
 20
0.0
 30
0.0
 40
0.5917499999999704
100
AcDbArc
 50
121.3368997021
 51
126.1631002979
  0
ARC
  5
FC
330
165
100
AcDbEntity
  8
0
  6
CONTINUOUS
100
AcDbCircle
 10
-0.3139918361
 20
0.5156774082
 30
0.0
 40
0.0119999999999998
100
AcDbArc
 50
301.3368997021
 51
358.9367291985001
  0
ARC
  5
FD
330
165
100
AcDbEntity
  8
0
  6
CONTINUOUS
100
AcDbCircle
 10
-0.2779980348
 20
0.5150093738
 30
0.0
 40
0.024
100
AcDbArc
 50
118.3598267248
 51
178.9367291985
  0
ARC
  5
FE
330
165
100
AcDbEntity
  8
0
  6
CONTINUOUS
100
AcDbCircle
 10
0.0
 20
0.0
 30
0.0
 40
0.609249999999947
100
AcDbArc
 50
106.6401732752
 51
118.3598267248
  0
ARC
  5
FF
330
165
100
AcDbEntity
  8
0
  6
CONTINUOUS
100
AcDbCircle
 10
-0.167592325
 20
0.5607409162
 30
0.0
 40
0.0240000000000006
100
AcDbArc
 50
46.0632708015
 51
106.6401732752
  0
ARC
  5
100
330
165
100
AcDbEntity
  8
0
  6
CONTINUOUS
100
AcDbCircle
 10
-0.1426132357
 20
0.5866647488
 30
0.0
 40
0.0119999999999994
100
AcDbArc
 50
226.0632708015
 51
283.6631002979
  0
ARC
  5
101
330
165
100
AcDbEntity
  8
0
  6
CONTINUOUS
100
AcDbCircle
 10
0.0
 20
0.0
 30
0.0
 40
0.5917500000000039
100
AcDbArc
 50
98.8368997021
 51
103.6631002979
  0
ARC
  5
102
330
165
100
AcDbEntity
  8
0
  6
CONTINUOUS
100
AcDbCircle
 10
-0.0927494302
 20
0.5965832764
 30
0.0
 40
0.0120000000000001
100
AcDbArc
 50
278.8368997021
 51
336.4367291985001
  0
ARC
  5
103
330
165
100
AcDbEntity
  8
0
  6
CONTINUOUS
100
AcDbCircle
 10
-0.0597511396
 20
0.5821918617
 30
0.0
 40
0.0239999999999996
100
AcDbArc
 50
95.85982672479997
 51
156.4367291985
  0
ENDSEC
  0
SECTION
  2
OBJECTS
  0
DICTIONARY
  5
155
330
0
100
AcDbDictionary
  3
ACAD_GROUP
350
156
  3
ACAD_IMAGE_VARS
350
1BA
  3
ACAD_MLINESTYLE
350
15F
  3
ACAD_SCALELIST
350
179
  3
APPDATA
350
1B8
  3
DWGPROPS
350
1BB
  0
DICTIONARY
  5
156
102
{ACAD_REACTORS
330
155
102
}
330
155
100
AcDbDictionary
  0
RASTERVARIABLES
  5
1BA
102
{ACAD_REACTORS
330
155
102
}
330
155
100
AcDbRasterVariables
 90
        0
 70
     1
 71
     1
 72
     0
  0
DICTIONARY
  5
15F
102
{ACAD_REACTORS
330
155
102
}
330
155
100
AcDbDictionary
  3
STANDARD
350
160
  0
DICTIONARY
  5
179
102
{ACAD_REACTORS
330
155
102
}
330
155
100
AcDbDictionary
  0
DICTIONARY
  5
1B8
102
{ACAD_REACTORS
330
155
102
}
330
155
100
AcDbDictionary
  0
XRECORD
  5
1BB
102
{ACAD_REACTORS
330
155
102
}
330
155
100
AcDbXrecord
  1
DWGPROPS COOKIE
  2

  3

  4

  6

  7

  8
NickC
  9

300
=
301
=
302
=
303
=
304
=
305
=
306
=
307
=
308
=
309
=
 40
0.0
 41
2458576.84382456
 42
2458578.915064525
  1

 90
        0
  0
MLINESTYLE
  5
160
102
{ACAD_REACTORS
330
15F
102
}
330
15F
100
AcDbMlineStyle
  2
Standard
 70
     0
  3

 62
   256
 51
90.0
 52
90.0
 71
     2
 49
0.5
 62
   256
  6
BYLAYER
 49
-0.5
 62
   256
  6
BYLAYER
  0
ENDSEC
  0
EOF
